<?xml version="1.0" standalone="no"?>
<!DOCTYPE svg PUBLIC "-//W3C//DTD SVG 20010904//EN"
 "http://www.w3.org/TR/2001/REC-SVG-20010904/DTD/svg10.dtd">
<svg version="1.0" xmlns="http://www.w3.org/2000/svg"
 width="512.000000pt" height="512.000000pt" viewBox="0 0 512.000000 512.000000"
 preserveAspectRatio="xMidYMid meet">
<metadata>
Created by potrace 1.11, written by Peter Selinger 2001-2013
</metadata>
<g transform="translate(0.000000,512.000000) scale(0.100000,-0.100000)"
fill="#000000" stroke="none">
<path d="M2847 4643 c3 -7 0 -13 -6 -13 -6 0 -11 -5 -11 -11 0 -5 5 -7 12 -3
7 4 2 -6 -10 -23 -24 -33 -28 -48 -12 -38 6 3 10 -1 10 -9 0 -9 7 -16 16 -16
9 0 12 -5 8 -12 -5 -9 -2 -8 9 1 16 12 17 12 11 -5 -4 -10 -4 -16 0 -12 10 8
36 -14 29 -25 -2 -4 -1 -7 4 -6 20 3 34 -2 28 -11 -3 -6 4 -10 16 -10 12 0 20
-3 16 -6 -7 -8 17 -34 32 -34 6 0 11 -4 11 -8 0 -5 10 -19 23 -32 12 -14 21
-28 20 -32 -2 -5 6 -8 17 -8 22 0 27 -15 8 -23 -7 -3 -3 -6 9 -6 16 -1 21 -6
17 -16 -4 -9 0 -15 10 -15 14 0 18 -8 18 -30 0 -3 9 -14 21 -25 11 -11 16 -14
12 -6 -5 9 -4 12 3 7 7 -4 12 -16 12 -27 0 -11 7 -22 16 -26 12 -4 12 -8 4
-13 -9 -5 -6 -10 9 -15 12 -3 21 -15 21 -26 0 -10 9 -28 21 -40 16 -16 18 -23
8 -35 -10 -12 -9 -13 3 -9 16 6 32 -20 23 -35 -3 -5 0 -12 6 -16 8 -5 9 -3 4
6 -5 8 -4 11 3 6 6 -4 9 -13 6 -20 -3 -7 2 -20 10 -29 9 -9 16 -27 16 -41 0
-14 4 -28 10 -31 6 -4 7 1 4 12 -4 14 -4 15 4 4 5 -7 7 -22 4 -34 -4 -15 -2
-18 9 -12 12 8 12 6 0 -9 -12 -15 -12 -17 0 -14 9 2 15 -7 17 -25 2 -15 7 -25
12 -22 4 3 6 -5 2 -17 -4 -16 -2 -19 8 -13 10 6 12 4 7 -8 -8 -20 4 -22 22 -4
9 7 11 7 8 1 -10 -17 21 -26 35 -10 11 11 15 11 24 -2 9 -12 13 -12 19 -2 5 9
4 11 -3 6 -7 -4 -12 -5 -12 -2 0 3 9 10 20 16 16 9 18 8 14 -5 -4 -8 -2 -15 3
-15 12 0 13 33 1 41 -5 3 -10 15 -11 26 0 13 -6 19 -14 16 -9 -4 -11 0 -7 11
3 9 1 23 -6 31 -7 8 -9 15 -5 15 4 0 2 7 -5 15 -7 8 -9 15 -5 15 5 0 0 10 -11
22 -10 12 -13 18 -6 14 6 -4 12 -2 12 3 0 6 -6 11 -14 11 -9 0 -12 7 -9 19 3
10 0 22 -6 25 -7 5 -9 0 -5 -11 5 -15 4 -15 -4 -3 -8 10 -7 19 1 29 9 12 9 13
0 7 -9 -5 -13 0 -13 13 0 12 -4 21 -9 21 -5 0 -12 14 -16 30 -4 17 -11 30 -16
30 -5 0 -9 12 -10 28 0 23 -1 24 -8 7 -7 -17 -9 -16 -15 13 -4 18 -12 29 -17
26 -6 -3 -10 0 -8 7 3 27 -1 40 -11 34 -5 -3 -11 1 -11 9 -3 35 -5 41 -14 40
-6 -1 -19 7 -30 19 -11 11 -14 17 -8 13 9 -5 11 -2 7 8 -3 9 -12 16 -20 16 -8
0 -14 9 -14 19 0 10 -7 22 -16 25 -9 3 -12 11 -8 18 4 7 4 10 0 6 -12 -10 -49
28 -41 41 3 7 3 11 -2 10 -21 -4 -33 2 -33 17 0 8 -4 12 -10 9 -5 -3 -10 -1
-10 5 0 11 -66 81 -71 76 -2 -2 -13 6 -24 17 -11 11 -14 16 -6 12 9 -5 12 -4
7 3 -3 6 -20 14 -37 17 -24 6 -28 9 -18 17 10 7 8 9 -8 5 -15 -3 -20 -1 -16 9
3 8 -1 14 -10 14 -8 0 -17 5 -19 11 -2 7 -18 13 -35 14 -22 1 -30 -2 -26 -12z"/>
<path d="M2085 4461 c-11 -5 -26 -6 -32 -4 -7 3 -13 0 -13 -6 0 -9 -6 -9 -22
0 -20 11 -21 10 -11 -2 10 -12 8 -15 -8 -16 -12 -1 -32 -9 -46 -19 -20 -13
-23 -18 -12 -25 10 -6 8 -9 -10 -9 -16 0 -21 -4 -17 -15 3 -8 0 -14 -7 -12 -7
1 -11 -6 -9 -17 2 -10 -1 -15 -6 -12 -13 8 -23 -20 -15 -41 5 -11 3 -14 -6 -8
-10 6 -11 3 -1 -15 8 -15 8 -20 1 -16 -6 4 -11 0 -11 -9 0 -9 4 -14 9 -10 10
6 7 -27 -4 -44 -3 -5 -1 -12 5 -16 6 -4 8 -11 5 -16 -4 -5 -1 -9 5 -9 7 0 10
-6 7 -14 -3 -8 1 -20 9 -27 9 -7 13 -21 10 -32 -3 -12 0 -17 8 -14 6 3 13 -4
13 -14 2 -24 28 -51 39 -41 5 4 2 -2 -6 -12 -9 -12 -10 -17 -3 -12 8 4 17 -2
25 -18 6 -14 17 -26 24 -26 8 0 11 -6 7 -17 -4 -11 -3 -14 5 -9 8 5 12 0 12
-13 0 -12 4 -20 9 -19 5 2 9 -1 9 -6 0 -5 4 -12 9 -15 5 -3 19 -21 32 -38 12
-18 30 -33 39 -34 10 0 12 -3 5 -5 -7 -3 -9 -12 -6 -20 3 -7 9 -11 14 -8 5 3
9 -2 9 -10 0 -9 5 -15 12 -13 7 1 13 -4 14 -10 1 -7 2 -17 3 -23 0 -5 9 -10
19 -11 15 0 14 -1 -3 -8 -17 -7 -17 -8 8 -15 15 -3 26 -10 24 -14 -1 -4 8 -18
21 -32 12 -14 25 -35 28 -47 4 -13 10 -20 15 -18 5 3 11 -6 15 -20 3 -13 10
-22 15 -19 5 3 9 0 9 -6 0 -6 5 -8 13 -4 7 5 7 2 -2 -10 -12 -15 -12 -17 0
-14 8 2 13 -3 12 -9 -2 -7 4 -13 13 -13 8 0 12 -4 9 -10 -3 -5 -1 -10 5 -10 6
0 8 -4 5 -10 -3 -5 1 -10 9 -10 10 0 16 -9 17 -22 0 -13 3 -17 6 -10 3 8 12 1
23 -20 10 -18 23 -32 29 -31 6 2 8 -4 5 -12 -4 -10 0 -15 12 -15 16 0 17 -2 4
-10 -13 -9 -7 -14 13 -11 4 0 7 -11 8 -27 0 -24 1 -25 9 -7 7 17 9 16 9 -10 1
-23 4 -27 11 -15 8 13 10 12 10 -2 0 -10 8 -18 18 -19 15 0 14 -1 -2 -8 -19
-7 -19 -8 3 -14 13 -3 20 -10 16 -16 -3 -6 1 -11 9 -11 9 0 16 -7 16 -16 0 -8
5 -12 10 -9 6 3 10 -1 10 -9 0 -9 8 -16 18 -17 14 0 14 -2 -3 -9 -19 -8 -18
-9 4 -9 20 -1 22 -3 11 -17 -11 -12 -11 -15 1 -12 8 2 13 -3 12 -9 -2 -7 1
-13 7 -13 5 0 6 -7 3 -17 -5 -12 -3 -14 8 -9 8 4 5 0 -6 -9 -18 -14 -21 -14
-31 0 -6 8 -16 15 -23 15 -6 0 -15 8 -18 17 -9 23 -40 53 -55 53 -10 0 -9 3 1
9 11 7 9 10 -8 16 -11 3 -21 13 -21 21 0 8 -4 12 -10 9 -9 -6 -15 8 -11 29 1
5 -5 3 -14 -4 -9 -7 -15 -9 -14 -4 4 21 -2 35 -11 29 -9 -6 -15 16 -11 39 1 5
-4 4 -12 -2 -10 -9 -17 -5 -30 17 -9 15 -13 31 -9 35 4 4 0 6 -8 4 -8 -2 -14
3 -13 10 3 11 -9 16 -29 13 -5 0 -7 2 -7 7 3 19 -2 33 -11 27 -9 -5 -14 7 -11
27 0 4 -8 10 -19 13 -12 4 -17 12 -13 22 4 10 2 14 -4 10 -14 -9 -46 21 -38
34 4 5 -1 9 -9 9 -9 0 -16 9 -16 20 0 13 -5 18 -15 14 -11 -5 -13 -2 -9 10 4
11 2 16 -7 14 -8 -2 -13 3 -12 10 2 7 -7 12 -20 12 -18 0 -19 2 -7 10 10 6 11
10 3 10 -7 0 -13 7 -13 16 0 8 -4 13 -9 9 -14 -8 -43 26 -36 43 3 9 3 13 -1 9
-11 -11 -66 52 -58 66 4 7 4 9 0 5 -13 -11 -49 29 -40 44 6 9 2 9 -12 -2 -10
-8 -16 -11 -12 -6 9 11 -10 48 -22 41 -4 -3 -14 8 -22 25 -7 16 -17 30 -21 30
-5 0 -6 4 -3 9 3 5 -3 11 -14 14 -11 3 -20 12 -20 21 0 9 -8 16 -17 17 -10 0
-13 3 -6 6 10 3 10 7 0 18 -7 7 -15 11 -19 8 -5 -2 -8 3 -8 11 0 9 -4 16 -10
16 -5 0 -10 7 -10 16 0 8 -3 13 -7 11 -12 -7 -30 17 -27 35 1 11 -3 15 -12 11
-9 -3 -14 1 -14 12 0 9 -4 13 -10 10 -5 -3 -10 1 -10 9 0 8 -8 20 -17 25 -10
6 -14 11 -9 11 15 0 -26 40 -42 40 -9 0 -12 6 -8 16 3 8 2 12 -4 9 -6 -3 -22
6 -36 22 -14 15 -23 21 -19 13 4 -8 -3 -4 -15 10 -12 14 -19 18 -15 10 4 -10
1 -9 -8 3 -8 9 -23 17 -35 17 -11 0 -22 5 -24 12 -2 6 -18 11 -36 10 -17 0
-34 4 -38 9 -3 5 -11 6 -17 2 -12 -8 -17 -9 -38 -12 -5 0 -8 -5 -5 -9 3 -5 -1
-9 -9 -9 -8 0 -12 4 -9 9 3 4 1 8 -5 8 -5 0 -11 -5 -13 -10 -2 -6 -13 -12 -25
-13 -17 -1 -19 -4 -11 -14 8 -11 7 -12 -7 -7 -12 5 -16 4 -12 -3 4 -6 -1 -10
-10 -9 -9 0 -22 -9 -28 -21 -7 -13 -16 -20 -21 -15 -4 4 -2 -1 5 -11 12 -15
12 -17 -1 -12 -11 5 -14 -1 -13 -24 1 -18 -2 -28 -8 -24 -6 4 -8 0 -4 -9 3 -9
1 -20 -4 -25 -13 -13 0 -45 15 -37 6 3 2 -2 -8 -10 -19 -15 -19 -16 -2 -16 16
0 17 -2 5 -17 -12 -14 -12 -16 0 -8 11 6 13 3 9 -13 -4 -13 0 -23 9 -26 8 -4
13 -13 10 -20 -3 -8 3 -24 14 -37 10 -12 19 -29 19 -38 0 -9 12 -27 25 -40 14
-13 25 -27 25 -33 0 -5 5 -6 10 -3 6 4 10 -5 10 -21 0 -23 2 -25 15 -14 13 11
14 10 9 -5 -6 -14 -4 -16 6 -10 10 6 12 4 7 -8 -3 -9 1 -21 11 -29 16 -12 16
-11 2 7 -15 20 -14 20 8 1 12 -11 22 -25 22 -33 0 -7 7 -13 15 -13 9 0 20 -12
25 -26 6 -14 14 -22 20 -19 5 3 10 -1 10 -10 0 -8 7 -18 15 -21 8 -4 15 -13
15 -21 0 -8 5 -11 10 -8 6 3 10 -1 10 -10 0 -8 7 -18 15 -21 8 -4 12 -11 8
-17 -4 -6 0 -8 11 -4 10 4 15 3 11 -3 -3 -6 -1 -10 5 -10 6 0 8 -5 5 -10 -3
-6 5 -14 19 -20 16 -6 26 -17 26 -30 0 -11 3 -19 8 -17 4 1 8 -3 10 -8 6 -18
35 -45 48 -45 8 0 11 -6 8 -15 -5 -11 -2 -13 10 -9 11 4 16 1 16 -10 0 -9 5
-16 10 -16 6 0 10 -7 10 -16 0 -10 5 -14 16 -10 9 3 12 2 9 -5 -4 -5 6 -22 22
-36 15 -14 21 -22 13 -19 -8 4 -7 1 3 -6 50 -35 53 -38 32 -32 -14 4 -11 0 8
-12 15 -10 27 -24 27 -30 0 -15 35 -46 43 -37 4 3 7 -7 7 -23 0 -22 3 -26 10
-14 6 10 10 11 10 3 0 -7 7 -13 15 -13 9 0 15 -9 15 -25 0 -14 5 -24 12 -22 7
1 12 -3 13 -10 0 -6 4 -15 9 -20 5 -4 6 -3 2 4 -3 6 -2 15 4 18 6 4 10 3 9 -2
-1 -4 -1 -18 0 -30 1 -17 5 -21 18 -16 11 4 14 3 9 -5 -4 -7 -3 -12 3 -12 5 0
20 -18 32 -40 12 -22 25 -38 27 -35 3 2 -1 13 -9 22 -13 16 -12 17 4 4 9 -7
17 -20 17 -28 0 -7 7 -16 15 -19 8 -4 12 -11 8 -17 -4 -7 0 -8 13 -3 10 4 16
4 12 1 -3 -4 2 -15 13 -26 11 -11 17 -25 13 -31 -4 -7 -3 -8 4 -4 13 8 35 -27
24 -40 -4 -5 2 -2 12 6 18 14 19 13 13 -2 -4 -13 -1 -18 11 -18 14 0 15 -2 3
-9 -12 -8 -9 -11 12 -16 14 -4 25 -12 24 -19 -1 -6 4 -10 11 -8 6 1 12 -7 12
-17 0 -11 4 -21 9 -23 10 -3 14 -22 12 -52 -1 -18 -2 -18 -19 -3 -10 10 -30
18 -45 19 -21 2 -24 5 -14 17 10 12 9 13 -1 7 -9 -5 -15 -1 -19 13 -3 12 -10
21 -15 21 -5 0 -6 -5 -2 -12 4 -7 3 -8 -4 -4 -6 4 -9 13 -5 22 3 8 2 14 -3 12
-5 -2 -10 1 -11 7 -1 5 -11 13 -23 17 -14 5 -20 14 -17 23 4 9 1 12 -9 8 -9
-3 -14 1 -14 12 0 11 -5 15 -14 12 -10 -4 -13 -1 -9 9 5 12 -7 19 -30 15 -4
-1 -3 8 3 18 7 14 7 22 0 26 -6 4 -9 1 -8 -6 2 -6 -3 -14 -10 -16 -8 -3 -10 1
-6 11 4 11 1 16 -11 16 -15 0 -16 2 -4 17 8 9 9 14 3 10 -6 -4 -24 5 -40 19
-16 15 -22 23 -14 18 13 -7 13 -6 1 10 -11 13 -16 14 -22 4 -6 -9 -9 -6 -9 10
0 15 -7 26 -19 29 -12 3 -17 11 -14 19 3 8 2 14 -3 13 -23 -4 -32 3 -38 26 -4
14 -11 23 -16 20 -6 -3 -10 -2 -10 4 0 17 -51 63 -65 57 -8 -3 -11 2 -8 13 3
11 -2 21 -12 25 -9 3 -13 10 -10 16 3 5 2 10 -3 10 -13 0 -47 32 -61 58 -6 12
-19 22 -27 22 -10 0 -14 6 -10 15 4 10 -1 15 -14 15 -11 0 -20 7 -20 16 0 8
-4 12 -10 9 -5 -3 -10 1 -10 10 0 9 -4 13 -10 10 -5 -3 -10 3 -10 14 0 11 -5
23 -12 27 -6 4 -8 3 -5 -3 3 -5 0 -10 -7 -10 -8 0 -12 6 -10 12 3 6 -3 21 -13
31 -10 11 -14 14 -9 7 5 -8 7 -16 4 -18 -3 -3 -11 7 -19 23 -19 37 -37 54 -49
47 -6 -3 -7 1 -4 9 4 11 0 16 -11 16 -9 0 -13 5 -10 10 3 6 2 10 -3 10 -5 0
-22 12 -38 26 -16 15 -22 23 -14 19 9 -5 12 -4 7 1 -5 5 -13 10 -18 10 -5 1
-14 2 -20 3 -5 0 -7 6 -3 13 5 7 2 9 -9 5 -9 -3 -18 0 -21 9 -3 8 -13 14 -21
14 -9 0 -23 7 -32 15 -8 8 -19 13 -24 9 -6 -3 -17 0 -26 8 -9 7 -14 8 -10 2 3
-6 0 -11 -8 -11 -8 0 -12 4 -9 9 7 11 -3 10 -27 -2 -11 -7 -19 -7 -19 -1 0 5
6 12 13 14 8 4 9 6 0 6 -6 1 -18 -5 -26 -13 -11 -11 -17 -12 -27 -3 -10 9 -11
9 -5 -2 6 -11 2 -13 -18 -9 -15 3 -24 1 -21 -4 3 -5 -3 -12 -15 -15 -11 -3
-18 -9 -15 -14 3 -5 -2 -9 -10 -9 -9 0 -16 -7 -16 -15 0 -8 -5 -15 -11 -15 -5
0 -7 5 -3 12 5 7 3 8 -5 4 -7 -5 -10 -15 -7 -23 4 -10 2 -13 -7 -10 -8 3 -14
-1 -14 -9 0 -7 5 -10 10 -7 6 4 3 -4 -6 -16 -8 -13 -13 -30 -10 -39 5 -11 3
-13 -7 -7 -9 6 -11 4 -5 -5 5 -7 9 -26 10 -41 2 -21 -1 -26 -14 -22 -13 3 -12
2 2 -7 9 -6 15 -15 12 -20 -3 -5 0 -12 6 -16 8 -4 7 -9 -2 -15 -11 -7 -11 -9
-1 -9 7 0 10 -4 7 -10 -3 -5 -1 -10 5 -10 6 0 8 -4 5 -10 -3 -5 -1 -10 5 -10
6 0 9 -4 5 -9 -3 -5 -1 -12 5 -16 6 -4 7 -11 4 -17 -4 -7 -2 -8 4 -4 8 5 12 0
12 -12 0 -11 9 -22 20 -25 13 -3 18 -10 14 -21 -5 -12 -2 -15 10 -10 12 5 16
0 16 -17 0 -12 3 -19 7 -16 3 4 12 -2 20 -13 8 -11 20 -20 28 -20 9 0 12 -6 9
-15 -5 -11 -2 -13 10 -9 12 5 15 2 9 -12 -5 -13 -3 -16 10 -11 18 7 33 -8 17
-18 -6 -4 -8 -11 -4 -16 3 -6 12 -5 22 3 9 7 13 8 9 2 -3 -6 0 -20 8 -30 15
-19 15 -18 10 1 -3 11 1 7 9 -10 8 -16 15 -27 16 -23 0 4 18 -9 39 -30 27 -26
36 -41 29 -49 -6 -8 -4 -10 10 -6 11 2 23 -1 27 -8 6 -8 4 -10 -6 -4 -12 8
-12 6 0 -8 7 -9 17 -14 22 -11 5 3 6 -3 2 -12 -4 -12 -3 -15 5 -10 7 4 12 2
12 -4 0 -6 5 -8 10 -5 6 3 10 -3 10 -14 0 -15 6 -21 21 -21 19 0 20 -2 8 -17
-8 -10 -9 -14 -2 -10 6 4 14 3 18 -3 4 -6 11 -8 16 -5 5 3 6 -2 2 -11 -5 -13
-3 -15 7 -9 10 6 12 4 7 -9 -5 -14 -3 -17 8 -12 9 3 15 0 15 -10 0 -10 6 -14
14 -11 10 4 12 0 9 -14 -3 -11 0 -19 7 -19 7 0 19 -8 27 -17 8 -10 11 -12 7
-4 -5 10 -3 12 5 7 7 -5 10 -14 7 -22 -3 -9 2 -14 14 -14 11 0 19 -6 18 -12
-2 -7 2 -12 9 -11 8 2 10 -4 6 -14 -4 -10 -2 -14 5 -9 6 3 13 -3 17 -14 3 -11
12 -19 18 -17 7 1 11 -4 9 -10 -1 -7 3 -13 9 -13 13 0 49 -38 49 -52 0 -4 5
-7 11 -6 6 2 14 -3 17 -11 3 -9 0 -11 -8 -6 -8 5 -11 4 -6 -3 4 -6 14 -8 23
-5 11 4 14 3 9 -5 -4 -7 -1 -12 8 -12 9 0 16 -7 16 -16 0 -8 5 -12 10 -9 6 3
10 -1 10 -9 0 -8 10 -18 21 -21 17 -6 19 -9 8 -17 -10 -7 -8 -8 9 -5 19 5 21
3 11 -9 -11 -13 -2 -19 24 -15 4 0 7 -8 7 -20 0 -11 4 -18 9 -15 5 3 12 -2 15
-11 6 -14 9 -15 15 -4 6 8 10 3 14 -18 5 -22 12 -31 27 -31 18 0 25 -15 21
-43 0 -4 2 -6 6 -6 5 1 17 1 28 0 15 -1 17 -3 7 -10 -11 -7 -10 -10 3 -15 9
-3 22 -3 28 1 6 4 8 0 4 -10 -3 -9 -2 -19 3 -22 4 -3 10 1 13 7 2 7 4 -1 3
-18 -1 -32 -20 -40 -35 -15 -5 7 -11 12 -15 12 -3 -1 -14 -1 -23 -1 -15 0 -16
2 -3 10 12 8 10 10 -8 10 -13 0 -21 3 -19 8 3 4 -1 13 -9 20 -8 7 -14 10 -14
6 0 -4 -11 6 -25 22 -14 16 -25 33 -25 38 0 5 -3 6 -6 3 -4 -4 -1 -15 7 -24
13 -16 12 -17 -3 -4 -10 7 -18 20 -18 28 0 8 -4 12 -9 9 -5 -3 -12 1 -15 10
-3 8 -10 12 -16 9 -6 -4 -7 1 -3 11 5 14 2 16 -15 12 -12 -4 -20 -3 -17 2 5 8
-28 50 -39 50 -9 0 -46 39 -46 49 0 5 -9 13 -21 16 -12 4 -18 12 -15 21 3 7 2
13 -2 13 -22 -4 -42 2 -37 11 3 6 -1 10 -10 10 -9 0 -13 4 -10 10 3 6 -1 10
-9 10 -9 0 -16 5 -16 11 0 5 -4 7 -10 4 -5 -3 -10 -1 -10 5 0 15 -25 40 -40
40 -6 0 -9 4 -5 9 3 5 -4 12 -15 16 -11 3 -19 9 -19 13 3 20 -2 25 -11 12 -8
-12 -10 -11 -10 7 0 16 -5 21 -19 18 -14 -3 -18 1 -14 11 3 8 0 14 -7 14 -6 0
-8 5 -4 13 5 7 0 6 -11 -3 -10 -8 -16 -10 -12 -3 4 7 -1 14 -13 18 -11 3 -20
11 -20 16 0 6 -4 7 -10 4 -5 -3 -10 -2 -10 4 0 6 -8 7 -17 4 -15 -6 -16 -4 -6
8 9 12 5 14 -24 15 -19 1 -38 5 -42 10 -10 15 -113 13 -107 -1 3 -8 -5 -12
-25 -10 -18 2 -33 -3 -38 -12 -4 -8 -12 -16 -17 -16 -5 -1 -8 -5 -7 -9 2 -4
-5 -4 -14 -1 -11 4 -14 3 -9 -5 4 -7 1 -12 -8 -12 -9 0 -16 -7 -16 -16 0 -8
-4 -12 -10 -9 -6 4 -7 -1 -3 -11 4 -11 2 -15 -4 -11 -6 4 -9 -3 -7 -18 1 -15
-5 -29 -14 -36 -12 -8 -13 -9 -2 -6 12 4 15 -5 13 -44 -1 -46 9 -65 20 -36 3
6 4 -2 2 -20 -3 -30 24 -81 47 -91 5 -2 6 -8 2 -13 -3 -5 2 -9 10 -9 9 0 15
-3 15 -7 -3 -18 2 -34 9 -30 4 3 16 -5 27 -16 11 -11 14 -16 6 -12 -9 5 -12 4
-7 -3 4 -7 14 -12 21 -12 15 0 38 -34 29 -43 -3 -3 5 -3 18 0 21 6 22 5 8 -12
-8 -10 -10 -16 -3 -12 6 4 14 3 18 -3 4 -6 10 -8 15 -5 9 5 22 -23 16 -34 -3
-4 4 -8 15 -8 25 -2 52 -30 43 -44 -4 -8 -3 -9 4 -5 7 4 12 2 12 -5 0 -8 5 -7
17 2 9 8 14 9 10 3 -7 -13 24 -54 41 -54 6 0 9 -7 6 -15 -4 -10 0 -13 16 -10
19 4 20 2 8 -12 -11 -15 -11 -16 5 -10 9 3 17 2 17 -4 0 -6 4 -7 10 -4 6 4 7
-1 3 -11 -4 -12 -3 -15 5 -10 7 4 12 2 12 -4 0 -6 5 -8 10 -5 6 4 9 1 8 -7 -2
-7 5 -12 14 -12 10 1 16 -2 13 -6 -2 -4 3 -16 11 -26 9 -10 12 -12 8 -4 -4 8
5 4 19 -9 15 -13 24 -28 21 -32 -3 -5 2 -6 10 -3 11 4 14 0 11 -16 -4 -19 -2
-20 12 -8 12 9 15 9 9 1 -6 -12 4 -18 26 -14 4 0 5 -6 2 -14 -5 -11 -2 -13 10
-9 12 4 16 0 16 -16 0 -11 5 -18 10 -15 6 3 10 -1 10 -9 0 -9 3 -15 8 -15 19
3 33 -2 27 -11 -3 -6 1 -10 9 -10 9 0 15 -6 14 -12 -2 -7 8 -14 21 -16 18 -3
21 -6 11 -12 -10 -6 -7 -10 13 -15 15 -4 24 -11 21 -16 -3 -5 0 -9 6 -9 6 0 8
-4 5 -10 -3 -5 -2 -10 4 -10 5 0 12 6 14 13 3 6 6 2 6 -10 1 -13 7 -23 16 -23
7 0 18 -6 22 -13 4 -6 17 -17 28 -23 11 -6 25 -20 30 -31 6 -11 16 -18 23 -15
7 2 16 -6 19 -18 3 -12 11 -19 19 -16 9 3 11 0 7 -11 -5 -12 -2 -15 10 -10 11
4 14 2 10 -9 -3 -9 2 -14 16 -14 15 0 21 -7 22 -22 0 -13 3 -18 5 -11 3 7 13
4 28 -10 12 -12 20 -26 18 -31 -3 -5 2 -7 11 -3 10 4 16 2 14 -6 -1 -6 9 -13
22 -15 19 -3 21 -6 10 -13 -11 -7 -10 -9 4 -9 10 0 16 -4 13 -9 -3 -5 5 -12
19 -15 17 -4 23 -11 18 -23 -4 -10 -2 -14 4 -10 6 4 18 0 26 -8 9 -8 20 -15
26 -15 6 0 10 -5 8 -12 -1 -7 13 -20 30 -29 18 -9 30 -19 26 -23 -3 -3 -1 -6
5 -6 6 0 24 -12 39 -27 15 -16 31 -27 36 -25 5 2 7 -4 4 -13 -8 -18 4 -20 22
-3 11 11 13 10 7 0 -4 -7 -1 -15 8 -18 9 -3 13 -11 9 -17 -4 -6 2 -8 15 -5 15
4 19 2 15 -8 -4 -10 3 -14 23 -14 25 0 26 -1 10 -13 -16 -12 -15 -13 13 -11
17 1 29 -1 26 -5 -2 -5 7 -14 20 -21 13 -7 21 -18 18 -24 -4 -6 1 -5 10 3 12
9 17 10 17 2 0 -7 5 -9 10 -6 6 3 10 -2 10 -12 0 -15 2 -16 10 -3 6 10 10 11
10 3 0 -7 9 -13 21 -13 13 0 18 -4 13 -12 -6 -10 -5 -10 7 -1 13 10 20 9 37
-8 13 -12 22 -15 22 -7 0 6 7 3 16 -8 8 -10 12 -12 8 -4 -6 12 -5 13 7 4 8 -6
24 -10 37 -9 13 1 25 -2 28 -7 3 -4 14 -3 25 2 13 8 19 7 19 0 0 -7 8 -9 22
-4 21 6 22 6 8 -12 -15 -18 -14 -18 12 -1 26 16 27 16 22 0 -5 -17 -5 -17 9 0
14 17 47 14 47 -5 0 -5 5 -6 10 -3 6 4 8 11 5 16 -3 5 1 6 9 3 9 -3 13 -11 9
-18 -3 -6 2 -4 13 4 10 9 33 17 49 18 23 2 27 1 15 -7 -9 -7 -10 -11 -3 -11 6
0 14 4 18 9 3 6 13 10 23 10 47 0 84 9 93 22 5 8 9 10 9 5 0 -5 10 -1 22 10
12 10 18 13 14 7 -4 -7 -2 -13 3 -13 6 0 11 5 11 10 0 6 12 10 26 10 14 0 23
4 19 10 -3 5 -2 10 4 10 5 0 12 -6 14 -12 3 -7 6 -2 7 12 1 14 4 19 7 13 6
-17 18 -16 37 3 9 9 22 17 29 18 29 7 47 19 47 34 0 8 3 12 7 9 3 -4 12 -2 20
4 7 6 13 8 13 5 0 -4 12 6 26 21 15 15 20 19 13 8 -13 -20 -13 -20 8 -1 13 10
20 24 16 30 -4 6 0 5 9 -2 14 -11 17 -10 23 8 3 11 11 18 16 15 5 -4 9 -1 9 4
0 6 7 11 16 11 10 0 14 6 10 15 -3 8 0 14 7 12 7 -1 11 3 10 9 -1 7 5 11 15
10 9 0 16 5 15 12 -2 6 2 12 8 12 7 0 18 8 25 18 7 9 16 17 21 17 14 0 62 52
55 59 -3 4 2 4 13 0 11 -4 17 -4 13 1 -4 4 7 21 25 38 18 16 32 35 32 41 1 6
6 10 13 9 11 -3 16 10 13 29 0 5 5 7 12 5 6 -1 12 7 12 18 0 11 7 21 15 23 9
1 20 13 26 25 5 12 16 21 24 19 11 -3 11 0 -1 14 -8 10 -9 15 -4 12 6 -3 19 6
30 21 19 26 19 26 0 11 -19 -14 -19 -14 -2 6 9 11 17 24 17 28 0 4 7 14 15 23
8 8 13 19 10 24 -4 5 2 9 12 9 14 0 15 2 4 9 -8 5 -9 10 -2 12 6 2 12 14 14
27 2 13 8 27 13 30 5 4 9 14 9 22 0 8 4 18 9 22 15 10 18 50 4 43 -7 -4 -6 -1
2 7 9 7 14 20 12 30 -2 9 2 19 7 23 8 4 8 12 0 27 -8 15 -8 19 0 14 13 -8 13
-7 15 57 1 26 -3 47 -9 47 -5 0 -4 4 4 9 7 5 11 13 7 19 -3 6 -2 14 4 17 8 5
8 11 1 19 -6 7 -8 16 -4 19 3 4 1 7 -7 7 -10 0 -10 3 1 16 10 13 10 17 -2 26
-11 7 -11 11 -1 15 6 2 12 9 12 14 0 6 -6 7 -12 3 -8 -5 -7 0 2 11 13 17 13
18 0 13 -11 -4 -15 3 -16 29 -1 22 2 30 7 22 6 -10 8 -7 6 8 0 12 -5 19 -9 17
-4 -3 -8 0 -8 5 0 6 6 11 13 11 8 0 8 3 -2 9 -8 5 -12 18 -8 30 3 12 1 24 -4
27 -5 3 -5 13 1 24 7 14 6 23 -6 34 -8 9 -11 16 -5 16 6 0 11 8 11 18 0 14 -2
15 -10 2 -12 -19 -13 -4 -1 19 7 12 5 26 -4 44 -8 16 -10 29 -4 32 5 4 9 1 9
-6 0 -7 3 -9 7 -5 5 4 1 13 -8 19 -11 8 -16 28 -17 57 0 64 -1 72 -10 66 -5
-3 -9 1 -9 9 0 8 3 12 7 10 4 -2 7 2 7 10 0 8 -4 12 -9 9 -4 -3 -8 8 -8 23 0
16 -6 35 -12 42 -10 11 -10 13 0 7 7 -5 12 -1 12 9 0 9 -5 13 -10 10 -5 -3
-10 1 -10 10 0 9 4 14 9 10 5 -3 3 8 -6 25 -8 17 -12 37 -9 45 3 8 -3 19 -12
25 -16 11 -16 11 1 6 9 -3 17 -1 17 4 0 6 -4 10 -9 10 -5 0 -12 7 -15 16 -3 8
-2 12 4 9 6 -3 10 -2 10 4 0 5 -5 13 -10 16 -8 5 -8 11 0 20 6 7 13 23 15 35
3 17 1 20 -12 15 -14 -5 -13 -2 3 16 10 12 13 19 7 15 -7 -4 -13 -2 -13 3 0 6
5 11 11 11 6 0 8 9 4 21 -6 16 -4 20 6 13 12 -6 12 -5 0 9 -7 9 -9 17 -3 17 5
0 13 7 16 16 3 8 2 12 -4 9 -6 -3 -10 -1 -10 4 0 6 5 11 11 11 7 0 9 10 7 25
-3 14 -1 25 4 25 5 0 6 5 3 10 -3 6 -1 10 4 10 6 0 11 14 11 31 0 16 4 28 9
24 5 -3 13 0 17 6 4 7 3 9 -4 5 -6 -4 -10 1 -9 13 0 11 5 17 9 15 4 -3 8 4 8
16 0 14 4 19 13 14 7 -5 6 0 -3 11 -9 11 -10 16 -2 11 6 -4 12 -4 13 1 3 29 9
48 18 51 6 2 11 12 11 22 0 9 6 23 14 30 8 6 12 18 9 26 -3 8 0 14 7 14 7 0
10 7 6 16 -3 9 -2 12 5 9 6 -4 10 -1 8 6 -3 26 1 40 10 34 5 -3 12 -1 16 5 3
5 0 10 -7 10 -9 0 -9 3 2 10 8 5 11 10 7 10 -5 0 -1 7 7 16 9 8 16 27 16 41 0
14 7 31 17 38 13 9 13 14 3 20 -9 6 -11 4 -5 -5 5 -9 4 -11 -4 -6 -6 4 -11 13
-10 19 3 26 -2 37 -16 37 -9 0 -15 9 -15 23 0 18 -2 19 -11 7 -9 -12 -10 -11
-6 7 4 20 3 21 -15 12 -15 -8 -19 -8 -14 0 4 6 0 11 -8 11 -9 0 -16 5 -16 11
0 5 -4 7 -10 4 -5 -3 -10 1 -10 11 0 13 -3 14 -15 4 -10 -9 -15 -9 -15 -1 0 6
-16 11 -35 11 -26 0 -35 4 -36 18 0 14 -2 14 -7 2 -7 -16 -25 -20 -38 -8 -4 4
-14 3 -21 -4 -11 -9 -16 -9 -23 1 -5 9 -9 10 -11 2 -2 -6 -21 -12 -43 -13 -21
-1 -40 -7 -43 -15 -3 -7 -9 -13 -15 -13 -5 0 -6 6 -3 13 4 6 -2 2 -12 -11 -10
-13 -29 -24 -41 -25 -12 -1 -22 -7 -22 -14 0 -7 -6 -10 -14 -7 -8 3 -17 0 -22
-7 -4 -8 -3 -10 4 -5 7 4 12 4 12 1 0 -3 -12 -10 -28 -16 -15 -5 -32 -19 -38
-32 -5 -12 -16 -21 -24 -19 -11 3 -11 1 0 -13 7 -9 9 -15 4 -14 -25 4 -36 -2
-30 -18 4 -10 4 -14 0 -10 -11 11 -43 -23 -37 -39 3 -8 -1 -14 -11 -14 -9 0
-16 -5 -16 -11 0 -5 4 -8 9 -5 5 4 4 -5 -2 -18 -7 -13 -16 -22 -21 -19 -5 4
-6 1 -2 -5 3 -6 2 -13 -4 -17 -6 -4 -8 -10 -5 -15 9 -15 -6 -60 -19 -54 -6 3
-3 -1 7 -9 20 -17 23 -31 3 -24 -18 7 -14 -22 5 -34 11 -7 10 -9 -5 -9 -16 0
-17 -2 -5 -17 10 -11 10 -14 2 -9 -10 5 -11 1 -3 -18 6 -17 6 -26 0 -26 -6 0
-10 -5 -10 -11 0 -5 5 -7 10 -4 6 3 10 2 10 -4 0 -5 -4 -11 -10 -13 -5 -1 -11
-22 -12 -45 -2 -24 -5 -43 -8 -43 -3 0 -6 -9 -7 -21 -1 -12 -9 -26 -18 -33 -9
-6 -17 -22 -18 -34 -1 -12 -6 -21 -12 -18 -13 5 -38 -31 -31 -43 3 -5 -8 -7
-25 -6 -20 2 -29 -1 -26 -10 4 -8 -7 -11 -36 -8 -65 5 -67 6 -67 15 0 5 -8 8
-17 7 -32 -3 -44 1 -38 11 3 6 -3 10 -15 10 -12 0 -18 5 -15 10 3 6 -4 10 -17
10 -16 0 -19 3 -10 9 10 6 8 10 -8 14 -16 4 -21 11 -16 22 3 9 2 13 -4 10 -6
-3 -10 0 -10 7 0 11 -2 10 -9 0 -6 -10 -10 -8 -14 8 -3 12 -10 19 -16 15 -6
-3 -11 1 -11 10 0 10 -5 13 -12 9 -9 -5 -8 -2 1 9 12 15 12 17 -4 11 -14 -6
-16 -4 -10 6 6 10 4 12 -9 7 -9 -4 -15 -3 -11 2 8 14 -5 41 -21 41 -8 0 -14 7
-14 15 0 8 -5 15 -10 15 -6 0 -16 11 -22 25 -6 14 -17 25 -25 25 -12 0 -17 12
-14 33 0 4 -6 7 -14 7 -8 0 -15 7 -15 15 0 8 -4 15 -10 15 -5 0 -10 6 -10 14
0 8 -7 16 -15 20 -8 3 -13 11 -11 18 1 7 1 10 -1 6 -3 -5 -9 -8 -14 -8 -6 0
-7 5 -4 10 3 6 1 10 -5 10 -6 0 -8 5 -5 10 3 6 -1 13 -10 16 -9 4 -14 13 -10
22 4 11 2 12 -8 4 -10 -8 -13 -6 -14 11 -1 12 -9 27 -17 33 -9 6 -12 15 -8 19
4 5 -1 5 -11 2 -11 -4 -16 -3 -12 4 4 5 -3 18 -14 29 -16 13 -18 20 -9 23 7 3
2 6 -12 7 -14 1 -20 4 -13 6 8 4 5 13 -9 29 -12 14 -26 21 -32 18 -6 -4 -6 -1
1 8 10 12 7 20 -17 41 -16 14 -31 23 -34 21 -3 -3 -3 6 0 19 2 12 1 17 -2 10
-8 -17 -33 14 -34 41 0 11 -4 15 -12 11 -8 -5 -9 -2 -5 10 4 10 3 15 -3 11 -6
-3 -10 1 -10 9 0 9 -5 16 -11 16 -5 0 -8 4 -4 9 3 5 -4 12 -15 16 -11 4 -18
11 -15 16 4 5 -2 9 -12 9 -14 0 -15 2 -5 9 11 7 10 9 -3 15 -9 3 -13 11 -9 18
5 8 2 9 -9 5 -13 -5 -17 -1 -17 18 0 13 -5 27 -12 31 -7 5 -8 3 -3 -6 5 -9 4
-11 -3 -6 -7 4 -12 17 -12 29 0 18 -2 19 -10 7 -8 -12 -10 -10 -11 10 -1 14
-1 29 0 33 1 5 -2 6 -7 3 -5 -3 -18 2 -28 10 -10 9 -14 13 -7 10 6 -4 15 -2
18 4 4 6 3 10 -2 9 -18 -3 -36 1 -30 7 3 4 -1 13 -9 21 -8 8 -12 19 -9 24 4 5
2 9 -4 9 -5 0 -12 -6 -15 -12 -4 -7 -4 -3 -2 10 3 13 -1 22 -9 22 -16 0 -28
28 -18 43 3 7 2 9 -2 4 -12 -10 -46 23 -38 37 4 6 -1 5 -10 -3 -15 -12 -17
-12 -11 4 5 13 4 16 -4 11 -7 -4 -12 -2 -12 5 0 17 -41 50 -53 42 -7 -4 -8 0
-4 11 5 14 3 17 -8 12 -8 -3 -14 0 -12 6 1 7 -5 13 -13 13 -8 1 -14 6 -12 13
2 12 -46 27 -80 26 -9 -1 -16 4 -15 10 1 6 -6 10 -17 8 -11 -2 -15 1 -11 7 7
12 7 12 -20 2z m-110 -51 c-3 -5 -12 -10 -18 -10 -7 0 -6 4 3 10 19 12 23 12
15 0z m820 -700 c3 -6 -1 -7 -9 -4 -18 7 -21 14 -7 14 6 0 13 -4 16 -10z
m-1111 -356 c3 -8 2 -12 -4 -9 -6 3 -10 10 -10 16 0 14 7 11 14 -7z m226 -254
c0 -5 -2 -10 -4 -10 -3 0 -8 5 -11 10 -3 6 -1 10 4 10 6 0 11 -4 11 -10z
m2290 -154 c0 -3 -4 -8 -10 -11 -5 -3 -10 -1 -10 4 0 6 5 11 10 11 6 0 10 -2
10 -4z m-3096 -652 c3 -8 2 -12 -4 -9 -6 3 -10 10 -10 16 0 14 7 11 14 -7z
m2466 -1394 c0 -5 -2 -10 -4 -10 -3 0 -8 5 -11 10 -3 6 -1 10 4 10 6 0 11 -4
11 -10z m-235 -100 c-3 -5 -12 -10 -18 -10 -7 0 -6 4 3 10 19 12 23 12 15 0z"/>
<path d="M2680 4400 c0 -5 -3 -9 -7 -9 -21 3 -24 -3 -12 -18 8 -10 9 -14 2
-10 -6 4 -15 2 -20 -5 -12 -20 -14 -46 -3 -53 6 -3 7 2 4 12 -3 10 2 7 10 -7
8 -14 15 -22 16 -17 0 4 8 -1 18 -10 11 -10 17 -21 15 -25 -2 -4 3 -5 11 -2
11 4 16 0 16 -12 0 -16 2 -17 10 -4 8 13 10 13 10 -2 0 -19 58 -71 71 -63 5 4
6 -1 3 -9 -4 -11 0 -16 12 -16 16 0 17 -2 4 -10 -13 -8 -12 -10 3 -10 10 0 16
-4 13 -9 -3 -5 1 -12 9 -15 8 -3 14 -9 13 -13 -2 -4 1 -9 6 -10 15 -2 28 -32
20 -46 -6 -9 -5 -9 7 0 15 12 17 8 21 -44 1 -7 5 -10 10 -7 5 3 5 10 2 16 -4
7 -2 8 4 4 6 -4 9 -13 5 -21 -3 -8 0 -15 6 -15 6 0 11 -5 11 -12 0 -6 8 -20
18 -31 9 -10 18 -28 18 -38 3 -37 4 -42 11 -36 6 6 21 -18 36 -56 4 -12 3 -16
-4 -11 -6 3 -5 -3 2 -15 10 -14 15 -17 21 -8 4 7 8 7 8 1 0 -5 -5 -15 -12 -22
-7 -7 -8 -12 -2 -12 10 0 12 -6 16 -49 2 -15 5 -17 15 -9 10 8 12 7 8 -4 -4
-11 2 -17 19 -20 15 -3 26 -1 27 6 0 6 4 2 9 -9 7 -17 9 -17 9 -2 1 20 17 23
24 5 4 -10 6 -10 6 0 1 7 5 11 10 7 16 -9 22 12 8 27 -7 7 -12 23 -11 35 1 12
-3 27 -8 35 -7 10 -8 9 -4 -4 3 -10 1 -18 -4 -18 -6 0 -10 18 -10 40 0 31 -4
40 -17 40 -15 0 -16 2 -3 10 8 5 10 10 4 10 -6 0 -16 12 -23 27 -11 25 -11 25
5 12 15 -12 15 -10 -1 13 -11 15 -24 28 -28 28 -5 0 -5 5 -2 10 3 6 2 10 -4
10 -5 0 -8 11 -6 25 2 22 0 23 -14 13 -9 -7 -13 -8 -8 -3 4 4 -1 17 -10 28
-10 11 -12 17 -6 13 9 -5 11 -2 7 8 -3 9 -16 16 -28 17 -20 0 -20 1 -2 8 18 7
18 8 3 14 -9 3 -17 11 -17 18 0 6 -9 18 -21 27 -11 10 -22 26 -24 37 -2 11 -4
22 -4 25 -1 3 -6 -2 -12 -10 -9 -12 -10 -11 -6 8 3 12 1 20 -4 16 -5 -3 -9 2
-9 10 0 8 -9 18 -20 21 -19 6 -25 17 -21 39 1 5 -6 3 -15 -5 -12 -9 -15 -9
-10 -1 4 7 2 12 -5 12 -7 0 -9 3 -6 7 8 7 -39 53 -54 53 -6 0 -7 5 -4 10 3 6
-3 10 -15 10 -12 0 -18 5 -15 10 3 6 -3 10 -15 10 -12 0 -18 5 -15 10 3 6 -1
10 -9 10 -9 0 -16 7 -16 16 0 14 -3 14 -15 4 -13 -11 -14 -10 -9 4 4 11 1 16
-10 16 -9 0 -16 -4 -16 -10z m101 -187 c13 -16 12 -17 -3 -4 -17 13 -22 21
-14 21 2 0 10 -8 17 -17z"/>
<path d="M4170 3849 c0 -5 5 -7 10 -4 6 3 10 8 10 11 0 2 -4 4 -10 4 -5 0 -10
-5 -10 -11z"/>
<path d="M1947 3799 c7 -7 15 -10 18 -7 3 3 -2 9 -12 12 -14 6 -15 5 -6 -5z"/>
<path d="M1306 2847 c3 -10 9 -15 12 -12 3 3 0 11 -7 18 -10 9 -11 8 -5 -6z"/>
<path d="M846 2195 c-9 -9 -16 -13 -16 -9 0 3 -7 1 -15 -6 -13 -11 -15 -10 -9
6 5 18 5 18 -7 0 -9 -15 -9 -21 -1 -24 7 -2 12 -10 12 -18 0 -8 5 -14 10 -14
6 0 10 -11 10 -25 0 -14 5 -25 10 -25 6 0 10 -4 10 -10 0 -5 9 -19 20 -30 11
-11 20 -27 20 -35 0 -8 4 -15 10 -15 5 0 9 -6 7 -12 -1 -7 4 -12 12 -10 12 3
12 1 0 -14 -9 -12 -9 -15 -1 -10 6 4 12 2 12 -3 0 -6 8 -11 18 -11 14 0 15 -2
2 -10 -12 -8 -12 -10 5 -10 17 0 17 -2 5 -10 -13 -8 -12 -10 3 -10 16 0 22
-12 18 -34 -1 -5 5 -6 14 -3 9 4 15 1 15 -8 0 -8 5 -15 10 -15 6 0 10 -7 10
-16 0 -8 5 -12 10 -9 9 6 15 -8 11 -29 -1 -5 6 -6 15 -2 12 5 15 2 10 -9 -3
-9 -2 -13 4 -10 6 3 13 -1 16 -9 3 -9 10 -16 16 -16 5 0 16 -6 24 -14 11 -11
11 -16 1 -19 -6 -3 -4 -6 7 -6 10 -1 30 -13 44 -28 13 -16 22 -23 19 -17 -4 6
0 11 7 11 8 0 12 -6 9 -14 -3 -8 3 -13 18 -14 23 0 23 -1 4 -9 -18 -8 -17 -9
7 -9 15 -1 33 -9 40 -19 7 -10 23 -17 36 -16 16 1 19 -2 13 -10 -9 -11 -2 -14
46 -18 7 -1 10 -5 7 -10 -3 -4 4 -8 16 -8 12 0 19 -4 16 -9 -4 -5 3 -7 14 -4
11 3 18 9 15 13 -9 14 6 40 19 33 6 -4 4 2 -4 12 -9 11 -10 16 -2 11 6 -4 12
-3 12 1 0 5 -6 15 -12 22 -11 11 -10 12 1 6 9 -5 12 -4 7 3 -4 7 -20 12 -37
12 -16 0 -29 4 -29 10 0 5 8 7 18 4 13 -5 14 -4 3 4 -8 6 -20 8 -28 5 -7 -3
-13 0 -13 6 0 6 -7 11 -15 11 -8 0 -24 9 -35 20 -11 11 -20 17 -20 13 0 -4 -6
1 -13 11 -7 9 -22 18 -33 18 -16 2 -20 7 -17 23 4 15 2 17 -5 6 -8 -11 -11 -9
-17 8 -3 12 -11 19 -16 16 -8 -6 -13 9 -10 28 1 5 -3 6 -9 2 -6 -3 -7 -11 -4
-17 4 -7 2 -8 -4 -4 -7 4 -12 14 -12 22 0 8 -4 14 -9 14 -5 0 -13 10 -16 21
-6 17 -9 19 -16 8 -7 -11 -9 -10 -9 4 0 22 -35 69 -44 60 -3 -3 -6 1 -6 11 0
9 -4 14 -10 11 -10 -6 -14 7 -11 32 1 8 -5 10 -14 7 -10 -4 -15 0 -15 10 0 9
-6 16 -12 16 -9 0 -8 4 2 10 13 8 12 10 -4 10 -13 0 -16 5 -12 17 4 10 4 14 0
11 -10 -11 -32 15 -26 31 3 9 1 12 -6 7 -11 -6 -17 5 -13 27 0 4 -6 7 -14 7
-8 0 -15 5 -15 11 0 5 4 8 9 4 5 -3 2 9 -6 27 -19 39 -29 51 -19 24 7 -20 7
-20 -15 0 -12 10 -19 14 -16 8 4 -7 0 -15 -9 -18 -23 -9 -31 -7 -14 4 8 5 12
12 8 15 -3 3 -13 -1 -22 -10z m265 -302 c13 -16 12 -17 -3 -4 -10 7 -18 15
-18 17 0 8 8 3 21 -13z"/>
<path d="M586 2093 c-8 -8 -34 -14 -58 -14 -9 0 -24 -9 -33 -19 -17 -19 -16
-20 8 -29 16 -6 25 -16 21 -24 -3 -8 2 -20 11 -27 8 -7 15 -21 15 -31 0 -11 5
-19 11 -19 5 0 7 -4 4 -10 -3 -5 -2 -10 3 -10 5 0 12 -9 15 -21 4 -14 10 -18
19 -13 9 5 8 2 -2 -11 -9 -11 -10 -16 -2 -11 7 4 12 1 12 -8 0 -9 5 -16 10
-16 6 0 10 -7 10 -15 0 -8 5 -15 10 -15 6 0 10 -7 10 -16 0 -10 6 -14 15 -10
8 3 14 2 14 -2 -4 -24 3 -42 16 -42 8 0 15 -9 15 -21 0 -11 5 -17 10 -14 6 3
10 0 10 -7 0 -17 78 -104 91 -100 5 1 9 -6 7 -15 -2 -10 2 -17 10 -15 6 1 12
-5 12 -13 0 -8 7 -15 15 -15 8 0 15 -7 15 -15 0 -8 6 -14 13 -13 6 2 11 -2 10
-9 -2 -8 4 -10 14 -6 11 4 14 3 9 -5 -4 -7 -2 -12 4 -12 6 0 8 -4 5 -10 -4 -6
1 -7 11 -3 13 5 15 3 9 -7 -6 -10 -4 -12 8 -7 10 4 16 2 14 -6 -1 -7 4 -11 12
-9 8 2 11 -3 8 -12 -4 -10 -1 -13 9 -9 10 4 17 -2 21 -16 4 -16 9 -19 18 -11
10 8 15 6 20 -10 4 -11 11 -17 17 -14 8 5 9 1 4 -11 -5 -15 -4 -16 9 -5 10 8
15 9 15 1 0 -6 7 -11 16 -11 10 0 14 -6 11 -14 -4 -11 1 -13 19 -10 14 3 23 1
20 -5 -3 -5 6 -12 19 -15 17 -4 23 -11 19 -19 -4 -7 -3 -9 1 -4 5 4 18 -1 29
-10 20 -17 20 -17 6 1 -14 18 -14 19 7 8 12 -7 24 -17 27 -24 5 -10 7 -11 12
0 3 6 10 9 16 6 6 -4 6 2 -1 14 -8 15 -8 23 1 28 6 4 8 3 4 -4 -3 -6 -2 -13 3
-16 11 -7 9 13 -3 33 -6 10 -5 12 2 7 8 -5 12 1 12 14 0 13 4 18 11 15 6 -4 5
2 -2 13 -7 12 -16 19 -20 16 -4 -2 -10 0 -14 6 -3 5 -15 10 -26 10 -11 0 -22
7 -25 15 -4 8 -15 15 -25 15 -10 0 -19 5 -19 10 0 6 -9 10 -21 10 -11 0 -18 4
-15 9 3 5 -4 11 -15 14 -12 3 -18 10 -14 17 3 6 3 9 -2 8 -14 -4 -53 13 -53
23 0 6 -4 7 -10 4 -6 -4 -7 1 -3 11 5 13 3 16 -9 11 -11 -4 -18 1 -21 15 -4
14 -11 19 -21 15 -9 -4 -15 -1 -13 6 1 7 -3 11 -10 10 -6 -2 -14 6 -18 16 -3
11 -12 22 -20 25 -8 3 -15 13 -15 23 0 15 -2 16 -10 3 -8 -13 -10 -13 -10 1 0
9 -7 20 -16 23 -10 4 -14 12 -10 22 6 15 4 15 -11 3 -9 -8 -14 -9 -10 -3 3 6
-3 18 -14 27 -11 10 -17 22 -14 27 3 6 0 10 -9 10 -8 0 -20 14 -28 30 -7 18
-18 28 -26 25 -7 -3 -10 0 -7 5 7 12 -19 52 -28 45 -4 -3 -5 -2 -2 2 3 3 -1
13 -9 22 -8 9 -16 23 -18 31 -2 8 -11 23 -21 32 -10 9 -22 29 -26 45 -5 15
-13 27 -19 26 -6 -2 -9 6 -7 17 2 11 -1 23 -7 26 -7 5 -8 2 -3 -6 5 -9 4 -11
-3 -6 -7 4 -12 14 -12 22 0 8 -10 14 -22 15 -22 0 -22 1 -3 9 15 6 16 9 4 9
-9 1 -19 -2 -23 -6z"/>
<path d="M3176 758 c3 -5 10 -6 15 -3 13 9 11 12 -6 12 -8 0 -12 -4 -9 -9z"/>
</g>
</svg>
